<svg xmlns="http://www.w3.org/2000/svg" xmlns:xlink="http://www.w3.org/1999/xlink" width="1920" zoomAndPan="magnify" viewBox="0 0 1440 809.999993" height="1080" preserveAspectRatio="xMidYMid meet" version="1.0"><defs><g/></defs><rect x="-144" width="1728" fill="#ffffff" y="-80.999999" height="971.999992" fill-opacity="1"/><g fill="#ff66c4" fill-opacity="0.4"><g transform="translate(577.177567, 437.623354)"><g><path d="M 2.703125 -1.171875 L 22.375 -9.703125 C 23.28125 -10.09375 23.484375 -10.6875 23.25 -11.671875 L 21.53125 -18.59375 C 21.390625 -19.265625 20.875 -19.546875 20.25 -19.28125 L 19.671875 -19.015625 C 17.703125 -18.171875 19.609375 -11.96875 16.109375 -10.4375 L 11.78125 -8.5625 C 10.359375 -7.953125 9.15625 -9.015625 8.5625 -10.390625 L 0.140625 -29.8125 C -0.6875 -31.71875 0.96875 -33.03125 0.453125 -34.1875 L 0.390625 -34.359375 C 0.171875 -34.859375 -0.375 -34.96875 -0.953125 -34.71875 L -10.125 -30.734375 C -10.703125 -30.484375 -11 -30.015625 -10.78125 -29.515625 L -10.71875 -29.34375 C -10.203125 -28.1875 -8.3125 -28.421875 -7.484375 -26.515625 L 1.40625 -6.015625 C 2.234375 -4.09375 0.78125 -2.859375 1.28125 -1.6875 L 1.359375 -1.515625 C 1.578125 -1.015625 2.125 -0.921875 2.703125 -1.171875 Z M 2.703125 -1.171875 "/></g></g></g><g fill="#ff66c4" fill-opacity="0.4"><g transform="translate(601.480292, 427.036309)"><g><path d="M 18.328125 -27.0625 L 18.265625 -27.234375 C 18.046875 -27.890625 17.546875 -28.21875 16.8125 -28.078125 L 11.28125 -27.046875 C 9.953125 -26.796875 9.3125 -26.03125 9.625 -25.09375 L 9.71875 -24.84375 C 8.09375 -25.53125 6.140625 -25.625 3.90625 -24.859375 C -1.515625 -23 -4.765625 -17.03125 -2.578125 -10.625 C -0.171875 -3.59375 6.015625 -1.59375 11.21875 -3.375 C 13.328125 -4.09375 14.984375 -5.421875 15.8125 -7.0625 L 15.9375 -6.671875 C 16.171875 -6.015625 16.796875 -5.75 17.4375 -5.984375 L 23.578125 -8.078125 C 24.140625 -8.28125 24.421875 -8.703125 24.234375 -9.21875 L 24.171875 -9.390625 C 23.765625 -10.59375 21.890625 -10.515625 21.203125 -12.5 L 17.765625 -22.546875 C 16.953125 -24.90625 18.640625 -26.15625 18.328125 -27.0625 Z M 12.21875 -6.0625 C 8.953125 -5.078125 4.71875 -12.84375 3.609375 -16.5 C 2.5625 -19.984375 3.078125 -22.234375 5.171875 -22.953125 C 7.15625 -23.640625 9.796875 -22.125 10.890625 -18.890625 L 13.734375 -10.609375 C 14.53125 -8.296875 13.703125 -6.515625 12.21875 -6.0625 Z M 12.21875 -6.0625 "/></g></g></g><g fill="#ff66c4" fill-opacity="0.4"><g transform="translate(626.296571, 418.488564)"><g><path d="M 22.328125 -10.90625 L 18.3125 -26.5 C 18.109375 -27.3125 17.375 -27.390625 16.15625 -26.890625 L 9.828125 -24.3125 C 9.234375 -24.078125 8.953125 -23.53125 9.078125 -23.046875 L 9.125 -22.890625 C 9.40625 -21.78125 11.296875 -21.703125 11.828125 -19.65625 L 14.0625 -10.9375 C 14.75 -8.25 13.921875 -6.21875 12.28125 -5.796875 C 10.359375 -5.296875 9.078125 -6.421875 8.203125 -10.03125 L 4.984375 -23.078125 C 4.78125 -23.890625 3.921875 -23.9375 2.703125 -23.4375 L -3.625 -20.859375 C -4.21875 -20.625 -4.5 -20.0625 -4.375 -19.578125 L -4.328125 -19.421875 C -4.046875 -18.3125 -2.15625 -18.234375 -1.625 -16.1875 L 0.265625 -8.828125 C 1.703125 -3.203125 6.265625 -1.140625 10.703125 -2.28125 C 13.703125 -3.0625 15.515625 -4.5625 16.203125 -6.609375 C 16.9375 -4.765625 18.265625 -4.4375 20.984375 -5.140625 C 23.796875 -5.859375 25.46875 -6.546875 25.171875 -7.734375 C 24.703125 -9.546875 23.25 -7.328125 22.328125 -10.90625 Z M 22.328125 -10.90625 "/></g></g></g><g fill="#ff66c4" fill-opacity="0.4"><g transform="translate(651.594174, 412.059591)"><g><path d="M 12.015625 -24.84375 C 8.953125 -24.28125 7.125 -22.328125 6.671875 -19.28125 L 6.078125 -22.53125 C 5.90625 -23.4375 5.34375 -23.984375 4.296875 -23.234375 L -1.453125 -19.140625 C -2.0625 -18.640625 -2.34375 -18.171875 -2.25 -17.640625 L -2.21875 -17.515625 C -1.984375 -16.21875 0.1875 -16.4375 0.578125 -14.328125 L 2.21875 -5.453125 C 2.609375 -3.390625 0.921875 -2.53125 1.15625 -1.28125 L 1.1875 -1.09375 C 1.28125 -0.5625 1.78125 -0.328125 2.40625 -0.453125 L 12.015625 -2.21875 C 12.625 -2.34375 13.015625 -2.734375 12.921875 -3.265625 L 12.890625 -3.453125 C 12.65625 -4.703125 10.1875 -4.796875 9.796875 -6.859375 L 8.265625 -15.15625 C 7.90625 -17.125 7.703125 -19.484375 9.140625 -19.75 C 11.359375 -20.15625 10.3125 -15.625 14.390625 -16.390625 C 16.96875 -16.859375 17.453125 -18.96875 17.03125 -21.203125 C 16.5625 -23.703125 14.671875 -25.34375 12.015625 -24.84375 Z M 12.015625 -24.84375 "/></g></g></g><g fill="#ff66c4" fill-opacity="0.4"><g transform="translate(670.999407, 408.405848)"><g><path d="M 19.0625 -9.546875 C 18.375 -8.34375 16.734375 -7.25 14.484375 -6.96875 C 11.953125 -6.671875 9.796875 -7.8125 8.359375 -9.9375 C 9.71875 -10.0625 11.265625 -10.34375 12.8125 -10.796875 C 16.96875 -11.984375 19.640625 -14.953125 19.25 -18.125 C 18.765625 -22.078125 14.84375 -24.265625 9.484375 -23.578125 C 3.453125 -22.796875 -1.140625 -17.796875 -0.328125 -11.078125 C 0.5 -4.265625 5.765625 -0.234375 12.4375 -1.046875 C 18.9375 -1.84375 20.96875 -6.625 20.8125 -9.109375 C 20.734375 -10.09375 19.609375 -10.25 19.0625 -9.546875 Z M 8.84375 -21.0625 C 10.3125 -21.25 11.625 -19.78125 11.921875 -17.8125 C 12.296875 -14.71875 11.390625 -13.1875 9.4375 -12.59375 C 8.875 -12.4375 8.0625 -12.28125 7.203125 -12.234375 C 6.8125 -13.25 6.53125 -14.421875 6.375 -15.625 C 6.015625 -18.609375 6.984375 -20.84375 8.84375 -21.0625 Z M 8.84375 -21.0625 "/></g></g></g><g fill="#ff66c4" fill-opacity="0.4"><g transform="translate(692.473213, 405.664268)"><g><path d="M 25.53125 -6.1875 L 24.5625 -13.984375 C 23.671875 -21.1875 19.390625 -23.203125 15.453125 -23.015625 C 12.453125 -22.859375 10.25 -21.515625 9.109375 -19.3125 L 9.015625 -21.4375 C 8.96875 -22.34375 8.34375 -23.078125 7.234375 -22.421875 L 1.046875 -19.015625 C 0.421875 -18.65625 -0.015625 -18.375 0.015625 -17.828125 L 0.015625 -17.6875 C 0.078125 -16.375 2.5 -16.21875 2.609375 -14.03125 L 3.03125 -5.109375 C 3.125 -3.015625 1.15625 -2.375 1.21875 -1.0625 L 1.234375 -0.875 C 1.25 -0.328125 1.6875 -0.03125 2.359375 -0.0625 L 12.15625 -0.53125 C 12.828125 -0.5625 13.234375 -0.90625 13.21875 -1.453125 L 13.203125 -1.640625 C 13.140625 -2.953125 11.109375 -3.390625 11.015625 -5.484375 L 10.546875 -15.359375 C 10.421875 -18 11.28125 -19.8125 13.28125 -19.921875 C 15.3125 -20.015625 16.265625 -18.375 16.703125 -13.890625 L 17.546875 -5.796875 C 17.78125 -3.71875 16.046875 -3.078125 16.109375 -1.765625 L 16.125 -1.578125 C 16.140625 -1.03125 16.5625 -0.75 17.234375 -0.78125 L 26.296875 -1.21875 C 26.9375 -1.25 27.375 -1.578125 27.359375 -2.125 L 27.34375 -2.3125 C 27.28125 -3.625 25.75 -4.09375 25.53125 -6.1875 Z M 25.53125 -6.1875 "/></g></g></g><g fill="#ff66c4" fill-opacity="0.4"><g transform="translate(719.618641, 404.57572)"><g><path d="M 4.21875 -19.453125 C 8.828125 -22.171875 11.046875 -25.515625 11.078125 -29.375 C 11.109375 -32.921875 8.8125 -34.9375 6.28125 -34.96875 C 3.46875 -34.984375 1.65625 -33 1.640625 -30.140625 C 1.609375 -27.640625 3.09375 -25.890625 4.859375 -25.875 C 5.40625 -25.875 5.5 -25.46875 5.453125 -24.875 C 5.296875 -23.515625 4.46875 -22.671875 2.78125 -20.984375 C 1.953125 -20.140625 3.171875 -18.8125 4.21875 -19.453125 Z M 4.21875 -19.453125 "/></g></g></g><g fill="#ff66c4" fill-opacity="0.4"><g transform="translate(730.525453, 404.53341)"><g><path d="M 11 1.046875 C 17.296875 1.40625 21.046875 -1.296875 21.265625 -5.046875 C 21.75 -13.390625 9.953125 -10.8125 10.3125 -17.015625 C 10.375 -18.328125 11.171875 -19.546875 12.578125 -19.46875 C 15.703125 -19.28125 13.921875 -13.265625 18.3125 -13.015625 C 19.984375 -12.90625 21.40625 -14 21.5 -15.578125 C 21.671875 -18.53125 18.046875 -21.25 12.296875 -21.578125 C 6.625 -21.90625 2.5625 -19.28125 2.328125 -15.234375 C 1.828125 -6.4375 14.046875 -9.234375 13.703125 -3.3125 C 13.59375 -1.484375 12.46875 -0.875 11.109375 -0.953125 C 7.34375 -1.171875 9.25 -7.296875 4.71875 -7.546875 C 2.90625 -7.65625 1.453125 -6.875 1.328125 -4.828125 C 1.140625 -1.65625 5.28125 0.71875 11 1.046875 Z M 11 1.046875 "/></g></g></g><g fill="#ff66c4" fill-opacity="0.4"><g transform="translate(751.831837, 405.891924)"><g/></g></g><g fill="#ff66c4" fill-opacity="0.4"><g transform="translate(759.869392, 406.2739)"><g><path d="M 2.90625 0.484375 L 15.71875 2.625 C 26.390625 4.390625 34.34375 -0.859375 35.90625 -10.171875 C 37.46875 -19.578125 31.5 -27.4375 18.78125 -29.546875 L 8.203125 -31.3125 C 7.578125 -31.421875 7.078125 -31.171875 6.984375 -30.640625 L 6.953125 -30.453125 C 6.75 -29.203125 8.453125 -28.359375 8.109375 -26.3125 L 4.4375 -4.28125 C 4.09375 -2.21875 2.203125 -1.96875 2 -0.71875 L 1.96875 -0.53125 C 1.875 0 2.28125 0.375 2.90625 0.484375 Z M 16.046875 -0.53125 C 13.59375 -0.9375 12.46875 -2.90625 12.953125 -5.8125 L 16.078125 -24.578125 C 16.34375 -26.1875 17.375 -26.578125 18.4375 -26.390625 L 18.9375 -26.3125 C 25.0625 -25.296875 28.21875 -16.578125 26.765625 -7.828125 C 25.78125 -1.96875 22.0625 0.46875 17.859375 -0.234375 Z M 16.046875 -0.53125 "/></g></g></g><g fill="#ff66c4" fill-opacity="0.4"><g transform="translate(793.062525, 411.921869)"><g><path d="M 30.21875 -12.4375 L 30.265625 -12.625 C 30.4375 -13.296875 30.21875 -13.859375 29.53125 -14.109375 L 24.34375 -16.328125 C 23.109375 -16.828125 22.140625 -16.5625 21.890625 -15.59375 L 21.8125 -15.34375 C 20.84375 -16.8125 19.28125 -17.96875 17 -18.5625 C 11.453125 -20.015625 5.421875 -16.828125 3.71875 -10.28125 C 1.84375 -3.09375 5.90625 2 11.234375 3.390625 C 13.375 3.953125 15.484375 3.765625 17.078125 2.84375 L 16.96875 3.234375 C 16.796875 3.90625 17.171875 4.46875 17.84375 4.640625 L 24.109375 6.28125 C 24.6875 6.4375 25.15625 6.234375 25.296875 5.703125 L 25.34375 5.515625 C 25.65625 4.296875 24.046875 3.3125 24.578125 1.28125 L 27.25 -9 C 27.890625 -11.421875 29.984375 -11.515625 30.21875 -12.4375 Z M 13.53125 1.703125 C 10.28125 0.703125 11.015625 -8.109375 12.125 -11.765625 C 13.1875 -15.25 14.84375 -16.84375 16.984375 -16.28125 C 19.015625 -15.75 20.375 -13.03125 19.515625 -9.734375 L 17.3125 -1.25 C 16.703125 1.09375 15.03125 2.140625 13.53125 1.703125 Z M 13.53125 1.703125 "/></g></g></g><g fill="#ff66c4" fill-opacity="0.4"><g transform="translate(818.657717, 418.77004)"><g><path d="M 14.421875 -21.03125 C 17.375 -20.078125 19.96875 -21.34375 20.765625 -23.765625 C 21.5625 -26.234375 20.203125 -28.734375 17.25 -29.6875 C 14.28125 -30.65625 11.6875 -29.4375 10.890625 -26.96875 C 10.09375 -24.546875 11.453125 -22 14.421875 -21.03125 Z M 2.25 0.734375 L 11.53125 3.75 C 12.171875 3.953125 12.703125 3.8125 12.875 3.296875 L 12.9375 3.109375 C 13.34375 1.859375 11.578125 0.703125 12.21875 -1.28125 L 17.1875 -16.5625 C 17.453125 -17.390625 16.9375 -18.3125 15.53125 -18.09375 L 7.96875 -17.015625 C 7.28125 -16.921875 6.8125 -16.828125 6.65625 -16.375 L 6.59375 -16.1875 C 6.265625 -15.15625 7.796875 -13.984375 7.15625 -12 L 4.484375 -3.796875 C 3.84375 -1.8125 1.9375 -1.859375 1.53125 -0.609375 L 1.46875 -0.421875 C 1.296875 0.09375 1.609375 0.515625 2.25 0.734375 Z M 2.25 0.734375 "/></g></g></g><g fill="#ff66c4" fill-opacity="0.4"><g transform="translate(831.510994, 422.943008)"><g><path d="M 1.875 0.6875 L 11.078125 4.109375 C 11.65625 4.3125 12.203125 4.171875 12.390625 3.65625 L 12.453125 3.484375 C 12.90625 2.25 11.21875 1.09375 11.9375 -0.859375 L 21.75 -27.34375 C 22.03125 -28.125 21.53125 -29.109375 20.125 -28.953125 L 12.515625 -28.1875 C 11.859375 -28.109375 11.390625 -28.03125 11.21875 -27.5625 L 11.15625 -27.390625 C 10.765625 -26.328125 12.203125 -25.15625 11.46875 -23.171875 L 4.265625 -3.703125 C 3.546875 -1.75 1.703125 -1.890625 1.25 -0.65625 L 1.1875 -0.484375 C 1 0.03125 1.28125 0.46875 1.875 0.6875 Z M 1.875 0.6875 "/></g></g></g><g fill="#ff66c4" fill-opacity="0.4"><g transform="translate(843.738456, 427.259271)"><g><path d="M 29 -11.40625 L 22.421875 -13.234375 C 21.8125 -13.40625 21.265625 -13.15625 21.0625 -12.703125 L 21 -12.546875 C 20.53125 -11.5 22.015625 -10.25 21.171875 -8.296875 L 17.59375 -0.09375 C 16.640625 2.078125 14.6875 3.140625 13.140625 2.46875 C 11.609375 1.796875 11.28125 0.125 12.640625 -2.859375 L 18.140625 -15.109375 C 18.46875 -15.875 17.84375 -16.4375 16.5625 -16.78125 L 10 -18.671875 C 9.359375 -18.84375 8.828125 -18.59375 8.625 -18.140625 L 8.5625 -17.984375 C 8.09375 -16.9375 9.53125 -15.703125 8.6875 -13.75 L 5.640625 -6.796875 C 3.5625 -2.015625 5.828125 2.546875 9.734375 4.25 C 11.9375 5.21875 13.796875 5.375 15.390625 4.9375 L 15.375 4.984375 C 12.75 10.96875 10.484375 12.171875 8.671875 11.328125 C 4.75 9.515625 8.921875 3.5 4.640625 1.640625 C 2.765625 0.8125 1.140625 1.59375 0.484375 3.09375 C -1.125 6.78125 2.3125 10.921875 7.015625 12.96875 C 13.078125 15.625 19.9375 14.34375 23.140625 6.984375 L 30.453125 -9.734375 C 30.78125 -10.5 30.296875 -11.046875 29 -11.40625 Z M 29 -11.40625 "/></g></g></g><g fill="#ffffff" fill-opacity="1"><g transform="translate(575.170687, 435.616459)"><g><path d="M 2.703125 -1.171875 L 22.375 -9.703125 C 23.28125 -10.09375 23.484375 -10.6875 23.25 -11.671875 L 21.53125 -18.59375 C 21.390625 -19.265625 20.875 -19.546875 20.25 -19.28125 L 19.671875 -19.015625 C 17.703125 -18.171875 19.609375 -11.96875 16.109375 -10.4375 L 11.78125 -8.5625 C 10.359375 -7.953125 9.15625 -9.015625 8.5625 -10.390625 L 0.140625 -29.8125 C -0.6875 -31.71875 0.96875 -33.03125 0.453125 -34.1875 L 0.390625 -34.359375 C 0.171875 -34.859375 -0.375 -34.96875 -0.953125 -34.71875 L -10.125 -30.734375 C -10.703125 -30.484375 -11 -30.015625 -10.78125 -29.515625 L -10.71875 -29.34375 C -10.203125 -28.1875 -8.3125 -28.421875 -7.484375 -26.515625 L 1.40625 -6.015625 C 2.234375 -4.09375 0.78125 -2.859375 1.28125 -1.6875 L 1.359375 -1.515625 C 1.578125 -1.015625 2.125 -0.921875 2.703125 -1.171875 Z M 2.703125 -1.171875 "/></g></g></g><g fill="#ffffff" fill-opacity="1"><g transform="translate(599.47334, 425.029444)"><g><path d="M 18.328125 -27.0625 L 18.265625 -27.234375 C 18.046875 -27.890625 17.546875 -28.21875 16.8125 -28.078125 L 11.28125 -27.046875 C 9.953125 -26.796875 9.3125 -26.03125 9.625 -25.09375 L 9.71875 -24.84375 C 8.09375 -25.53125 6.140625 -25.625 3.90625 -24.859375 C -1.515625 -23 -4.765625 -17.03125 -2.578125 -10.625 C -0.171875 -3.59375 6.015625 -1.59375 11.21875 -3.375 C 13.328125 -4.09375 14.984375 -5.421875 15.8125 -7.0625 L 15.9375 -6.671875 C 16.171875 -6.015625 16.796875 -5.75 17.4375 -5.984375 L 23.578125 -8.078125 C 24.140625 -8.28125 24.421875 -8.703125 24.234375 -9.21875 L 24.171875 -9.390625 C 23.765625 -10.59375 21.890625 -10.515625 21.203125 -12.5 L 17.765625 -22.546875 C 16.953125 -24.90625 18.640625 -26.15625 18.328125 -27.0625 Z M 12.21875 -6.0625 C 8.953125 -5.078125 4.71875 -12.84375 3.609375 -16.5 C 2.5625 -19.984375 3.078125 -22.234375 5.171875 -22.953125 C 7.15625 -23.640625 9.796875 -22.125 10.890625 -18.890625 L 13.734375 -10.609375 C 14.53125 -8.296875 13.703125 -6.515625 12.21875 -6.0625 Z M 12.21875 -6.0625 "/></g></g></g><g fill="#ffffff" fill-opacity="1"><g transform="translate(624.289691, 416.48167)"><g><path d="M 22.328125 -10.90625 L 18.3125 -26.5 C 18.109375 -27.3125 17.375 -27.390625 16.15625 -26.890625 L 9.828125 -24.3125 C 9.234375 -24.078125 8.953125 -23.53125 9.078125 -23.046875 L 9.125 -22.890625 C 9.40625 -21.78125 11.296875 -21.703125 11.828125 -19.65625 L 14.0625 -10.9375 C 14.75 -8.25 13.921875 -6.21875 12.28125 -5.796875 C 10.359375 -5.296875 9.078125 -6.421875 8.203125 -10.03125 L 4.984375 -23.078125 C 4.78125 -23.890625 3.921875 -23.9375 2.703125 -23.4375 L -3.625 -20.859375 C -4.21875 -20.625 -4.5 -20.0625 -4.375 -19.578125 L -4.328125 -19.421875 C -4.046875 -18.3125 -2.15625 -18.234375 -1.625 -16.1875 L 0.265625 -8.828125 C 1.703125 -3.203125 6.265625 -1.140625 10.703125 -2.28125 C 13.703125 -3.0625 15.515625 -4.5625 16.203125 -6.609375 C 16.9375 -4.765625 18.265625 -4.4375 20.984375 -5.140625 C 23.796875 -5.859375 25.46875 -6.546875 25.171875 -7.734375 C 24.703125 -9.546875 23.25 -7.328125 22.328125 -10.90625 Z M 22.328125 -10.90625 "/></g></g></g><g fill="#ffffff" fill-opacity="1"><g transform="translate(649.58727, 410.052696)"><g><path d="M 12.015625 -24.84375 C 8.953125 -24.28125 7.125 -22.328125 6.671875 -19.28125 L 6.078125 -22.53125 C 5.90625 -23.4375 5.34375 -23.984375 4.296875 -23.234375 L -1.453125 -19.140625 C -2.0625 -18.640625 -2.34375 -18.171875 -2.25 -17.640625 L -2.21875 -17.515625 C -1.984375 -16.21875 0.1875 -16.4375 0.578125 -14.328125 L 2.21875 -5.453125 C 2.609375 -3.390625 0.921875 -2.53125 1.15625 -1.28125 L 1.1875 -1.09375 C 1.28125 -0.5625 1.78125 -0.328125 2.40625 -0.453125 L 12.015625 -2.21875 C 12.625 -2.34375 13.015625 -2.734375 12.921875 -3.265625 L 12.890625 -3.453125 C 12.65625 -4.703125 10.1875 -4.796875 9.796875 -6.859375 L 8.265625 -15.15625 C 7.90625 -17.125 7.703125 -19.484375 9.140625 -19.75 C 11.359375 -20.15625 10.3125 -15.625 14.390625 -16.390625 C 16.96875 -16.859375 17.453125 -18.96875 17.03125 -21.203125 C 16.5625 -23.703125 14.671875 -25.34375 12.015625 -24.84375 Z M 12.015625 -24.84375 "/></g></g></g><g fill="#ffffff" fill-opacity="1"><g transform="translate(668.992455, 406.398954)"><g><path d="M 19.0625 -9.546875 C 18.375 -8.34375 16.734375 -7.25 14.484375 -6.96875 C 11.953125 -6.671875 9.796875 -7.8125 8.359375 -9.9375 C 9.71875 -10.0625 11.265625 -10.34375 12.8125 -10.796875 C 16.96875 -11.984375 19.640625 -14.953125 19.25 -18.125 C 18.765625 -22.078125 14.84375 -24.265625 9.484375 -23.578125 C 3.453125 -22.796875 -1.140625 -17.796875 -0.328125 -11.078125 C 0.5 -4.265625 5.765625 -0.234375 12.4375 -1.046875 C 18.9375 -1.84375 20.96875 -6.625 20.8125 -9.109375 C 20.734375 -10.09375 19.609375 -10.25 19.0625 -9.546875 Z M 8.84375 -21.0625 C 10.3125 -21.25 11.625 -19.78125 11.921875 -17.8125 C 12.296875 -14.71875 11.390625 -13.1875 9.4375 -12.59375 C 8.875 -12.4375 8.0625 -12.28125 7.203125 -12.234375 C 6.8125 -13.25 6.53125 -14.421875 6.375 -15.625 C 6.015625 -18.609375 6.984375 -20.84375 8.84375 -21.0625 Z M 8.84375 -21.0625 "/></g></g></g><g fill="#ffffff" fill-opacity="1"><g transform="translate(690.466309, 403.657371)"><g><path d="M 25.53125 -6.1875 L 24.5625 -13.984375 C 23.671875 -21.1875 19.390625 -23.203125 15.453125 -23.015625 C 12.453125 -22.859375 10.25 -21.515625 9.109375 -19.3125 L 9.015625 -21.4375 C 8.96875 -22.34375 8.34375 -23.078125 7.234375 -22.421875 L 1.046875 -19.015625 C 0.421875 -18.65625 -0.015625 -18.375 0.015625 -17.828125 L 0.015625 -17.6875 C 0.078125 -16.375 2.5 -16.21875 2.609375 -14.03125 L 3.03125 -5.109375 C 3.125 -3.015625 1.15625 -2.375 1.21875 -1.0625 L 1.234375 -0.875 C 1.25 -0.328125 1.6875 -0.03125 2.359375 -0.0625 L 12.15625 -0.53125 C 12.828125 -0.5625 13.234375 -0.90625 13.21875 -1.453125 L 13.203125 -1.640625 C 13.140625 -2.953125 11.109375 -3.390625 11.015625 -5.484375 L 10.546875 -15.359375 C 10.421875 -18 11.28125 -19.8125 13.28125 -19.921875 C 15.3125 -20.015625 16.265625 -18.375 16.703125 -13.890625 L 17.546875 -5.796875 C 17.78125 -3.71875 16.046875 -3.078125 16.109375 -1.765625 L 16.125 -1.578125 C 16.140625 -1.03125 16.5625 -0.75 17.234375 -0.78125 L 26.296875 -1.21875 C 26.9375 -1.25 27.375 -1.578125 27.359375 -2.125 L 27.34375 -2.3125 C 27.28125 -3.625 25.75 -4.09375 25.53125 -6.1875 Z M 25.53125 -6.1875 "/></g></g></g><g fill="#ffffff" fill-opacity="1"><g transform="translate(717.611689, 402.568826)"><g><path d="M 4.21875 -19.453125 C 8.828125 -22.171875 11.046875 -25.515625 11.078125 -29.375 C 11.109375 -32.921875 8.8125 -34.9375 6.28125 -34.96875 C 3.46875 -34.984375 1.65625 -33 1.640625 -30.140625 C 1.609375 -27.640625 3.09375 -25.890625 4.859375 -25.875 C 5.40625 -25.875 5.5 -25.46875 5.453125 -24.875 C 5.296875 -23.515625 4.46875 -22.671875 2.78125 -20.984375 C 1.953125 -20.140625 3.171875 -18.8125 4.21875 -19.453125 Z M 4.21875 -19.453125 "/></g></g></g><g fill="#ffffff" fill-opacity="1"><g transform="translate(728.518501, 402.526487)"><g><path d="M 11 1.046875 C 17.296875 1.40625 21.046875 -1.296875 21.265625 -5.046875 C 21.75 -13.390625 9.953125 -10.8125 10.3125 -17.015625 C 10.375 -18.328125 11.171875 -19.546875 12.578125 -19.46875 C 15.703125 -19.28125 13.921875 -13.265625 18.3125 -13.015625 C 19.984375 -12.90625 21.40625 -14 21.5 -15.578125 C 21.671875 -18.53125 18.046875 -21.25 12.296875 -21.578125 C 6.625 -21.90625 2.5625 -19.28125 2.328125 -15.234375 C 1.828125 -6.4375 14.046875 -9.234375 13.703125 -3.3125 C 13.59375 -1.484375 12.46875 -0.875 11.109375 -0.953125 C 7.34375 -1.171875 9.25 -7.296875 4.71875 -7.546875 C 2.90625 -7.65625 1.453125 -6.875 1.328125 -4.828125 C 1.140625 -1.65625 5.28125 0.71875 11 1.046875 Z M 11 1.046875 "/></g></g></g><g fill="#ffffff" fill-opacity="1"><g transform="translate(749.824885, 403.88503)"><g/></g></g><g fill="#ffffff" fill-opacity="1"><g transform="translate(757.86244, 404.267005)"><g><path d="M 2.90625 0.484375 L 15.71875 2.625 C 26.390625 4.390625 34.34375 -0.859375 35.90625 -10.171875 C 37.46875 -19.578125 31.5 -27.4375 18.78125 -29.546875 L 8.203125 -31.3125 C 7.578125 -31.421875 7.078125 -31.171875 6.984375 -30.640625 L 6.953125 -30.453125 C 6.75 -29.203125 8.453125 -28.359375 8.109375 -26.3125 L 4.4375 -4.28125 C 4.09375 -2.21875 2.203125 -1.96875 2 -0.71875 L 1.96875 -0.53125 C 1.875 0 2.28125 0.375 2.90625 0.484375 Z M 16.046875 -0.53125 C 13.59375 -0.9375 12.46875 -2.90625 12.953125 -5.8125 L 16.078125 -24.578125 C 16.34375 -26.1875 17.375 -26.578125 18.4375 -26.390625 L 18.9375 -26.3125 C 25.0625 -25.296875 28.21875 -16.578125 26.765625 -7.828125 C 25.78125 -1.96875 22.0625 0.46875 17.859375 -0.234375 Z M 16.046875 -0.53125 "/></g></g></g><g fill="#ffffff" fill-opacity="1"><g transform="translate(791.055573, 409.914974)"><g><path d="M 30.21875 -12.4375 L 30.265625 -12.625 C 30.4375 -13.296875 30.21875 -13.859375 29.53125 -14.109375 L 24.34375 -16.328125 C 23.109375 -16.828125 22.140625 -16.5625 21.890625 -15.59375 L 21.8125 -15.34375 C 20.84375 -16.8125 19.28125 -17.96875 17 -18.5625 C 11.453125 -20.015625 5.421875 -16.828125 3.71875 -10.28125 C 1.84375 -3.09375 5.90625 2 11.234375 3.390625 C 13.375 3.953125 15.484375 3.765625 17.078125 2.84375 L 16.96875 3.234375 C 16.796875 3.90625 17.171875 4.46875 17.84375 4.640625 L 24.109375 6.28125 C 24.6875 6.4375 25.15625 6.234375 25.296875 5.703125 L 25.34375 5.515625 C 25.65625 4.296875 24.046875 3.3125 24.578125 1.28125 L 27.25 -9 C 27.890625 -11.421875 29.984375 -11.515625 30.21875 -12.4375 Z M 13.53125 1.703125 C 10.28125 0.703125 11.015625 -8.109375 12.125 -11.765625 C 13.1875 -15.25 14.84375 -16.84375 16.984375 -16.28125 C 19.015625 -15.75 20.375 -13.03125 19.515625 -9.734375 L 17.3125 -1.25 C 16.703125 1.09375 15.03125 2.140625 13.53125 1.703125 Z M 13.53125 1.703125 "/></g></g></g><g fill="#ffffff" fill-opacity="1"><g transform="translate(816.650765, 416.763143)"><g><path d="M 14.421875 -21.03125 C 17.375 -20.078125 19.96875 -21.34375 20.765625 -23.765625 C 21.5625 -26.234375 20.203125 -28.734375 17.25 -29.6875 C 14.28125 -30.65625 11.6875 -29.4375 10.890625 -26.96875 C 10.09375 -24.546875 11.453125 -22 14.421875 -21.03125 Z M 2.25 0.734375 L 11.53125 3.75 C 12.171875 3.953125 12.703125 3.8125 12.875 3.296875 L 12.9375 3.109375 C 13.34375 1.859375 11.578125 0.703125 12.21875 -1.28125 L 17.1875 -16.5625 C 17.453125 -17.390625 16.9375 -18.3125 15.53125 -18.09375 L 7.96875 -17.015625 C 7.28125 -16.921875 6.8125 -16.828125 6.65625 -16.375 L 6.59375 -16.1875 C 6.265625 -15.15625 7.796875 -13.984375 7.15625 -12 L 4.484375 -3.796875 C 3.84375 -1.8125 1.9375 -1.859375 1.53125 -0.609375 L 1.46875 -0.421875 C 1.296875 0.09375 1.609375 0.515625 2.25 0.734375 Z M 2.25 0.734375 "/></g></g></g><g fill="#ffffff" fill-opacity="1"><g transform="translate(829.504042, 420.936085)"><g><path d="M 1.875 0.6875 L 11.078125 4.109375 C 11.65625 4.3125 12.203125 4.171875 12.390625 3.65625 L 12.453125 3.484375 C 12.90625 2.25 11.21875 1.09375 11.9375 -0.859375 L 21.75 -27.34375 C 22.03125 -28.125 21.53125 -29.109375 20.125 -28.953125 L 12.515625 -28.1875 C 11.859375 -28.109375 11.390625 -28.03125 11.21875 -27.5625 L 11.15625 -27.390625 C 10.765625 -26.328125 12.203125 -25.15625 11.46875 -23.171875 L 4.265625 -3.703125 C 3.546875 -1.75 1.703125 -1.890625 1.25 -0.65625 L 1.1875 -0.484375 C 1 0.03125 1.28125 0.46875 1.875 0.6875 Z M 1.875 0.6875 "/></g></g></g><g fill="#ffffff" fill-opacity="1"><g transform="translate(841.731504, 425.252348)"><g><path d="M 29 -11.40625 L 22.421875 -13.234375 C 21.8125 -13.40625 21.265625 -13.15625 21.0625 -12.703125 L 21 -12.546875 C 20.53125 -11.5 22.015625 -10.25 21.171875 -8.296875 L 17.59375 -0.09375 C 16.640625 2.078125 14.6875 3.140625 13.140625 2.46875 C 11.609375 1.796875 11.28125 0.125 12.640625 -2.859375 L 18.140625 -15.109375 C 18.46875 -15.875 17.84375 -16.4375 16.5625 -16.78125 L 10 -18.671875 C 9.359375 -18.84375 8.828125 -18.59375 8.625 -18.140625 L 8.5625 -17.984375 C 8.09375 -16.9375 9.53125 -15.703125 8.6875 -13.75 L 5.640625 -6.796875 C 3.5625 -2.015625 5.828125 2.546875 9.734375 4.25 C 11.9375 5.21875 13.796875 5.375 15.390625 4.9375 L 15.375 4.984375 C 12.75 10.96875 10.484375 12.171875 8.671875 11.328125 C 4.75 9.515625 8.921875 3.5 4.640625 1.640625 C 2.765625 0.8125 1.140625 1.59375 0.484375 3.09375 C -1.125 6.78125 2.3125 10.921875 7.015625 12.96875 C 13.078125 15.625 19.9375 14.34375 23.140625 6.984375 L 30.453125 -9.734375 C 30.78125 -10.5 30.296875 -11.046875 29 -11.40625 Z M 29 -11.40625 "/></g></g></g></svg>